<svg width="1282" height="1514" viewBox="0 0 1282 1514" fill="none" xmlns="http://www.w3.org/2000/svg">
<rect x="114" y="165" width="1054" height="352" rx="30" fill="#6A61F0" fill-opacity="0.1"/>
<circle cx="286.5" cy="341.5" r="97.5" fill="#6A61F0"/>
<line x1="959" y1="320" x2="1088" y2="320" stroke="#6A61F0" stroke-width="10"/>
<line x1="959" y1="353" x2="1088" y2="353" stroke="#6A61F0" stroke-width="10"/>
<path d="M286.812 313.891H290.68V371H286.188V322.875C286.188 322.146 286.201 321.43 286.227 320.727C286.253 320.023 286.292 319.346 286.344 318.695C285.589 319.424 284.885 320.062 284.234 320.609C283.609 321.13 282.763 321.82 281.695 322.68L273.688 328.773L271.305 325.57L286.812 313.891Z" fill="white"/>
<rect x="451.5" y="246.5" width="433" height="190" rx="27.5" fill="#FCF4F9" stroke="#6A61F0" stroke-width="5"/>
<rect x="114" y="609" width="1054" height="352" rx="30" fill="#6A61F0" fill-opacity="0.1"/>
<circle cx="286.5" cy="785.5" r="97.5" fill="#6A61F0"/>
<path d="M273.805 810.859H304.117V815H267.945V811.172L284.352 794.102C287.06 791.263 289.352 788.737 291.227 786.523C293.102 784.284 294.508 782.044 295.445 779.805C296.409 777.565 296.891 775.052 296.891 772.266C296.891 768.698 295.849 765.951 293.766 764.023C291.708 762.07 288.909 761.094 285.367 761.094C282.815 761.094 280.419 761.549 278.18 762.461C275.94 763.346 273.727 764.648 271.539 766.367L269.078 763.164C271.422 761.237 273.974 759.74 276.734 758.672C279.521 757.604 282.398 757.07 285.367 757.07C290.289 757.07 294.208 758.438 297.125 761.172C300.068 763.88 301.539 767.526 301.539 772.109C301.539 775.208 300.992 778.034 299.898 780.586C298.805 783.164 297.255 785.677 295.25 788.125C293.271 790.573 290.888 793.19 288.102 795.977L273.805 810.586V810.859Z" fill="white"/>
<line x1="959" y1="764" x2="1088" y2="764" stroke="#6A61F0" stroke-width="10"/>
<line x1="959" y1="797" x2="1088" y2="797" stroke="#6A61F0" stroke-width="10"/>
<rect x="451.5" y="690.5" width="433" height="190" rx="27.5" fill="#FCF4F9" stroke="#6A61F0" stroke-width="5"/>
<path d="M761.818 1352.45C761.818 1359.94 755.754 1366 748.273 1366C740.792 1366 734.727 1359.94 734.727 1352.45C734.727 1344.97 740.792 1338.91 748.273 1338.91C755.754 1338.91 761.818 1344.97 761.818 1352.45Z" fill="#6A61F0"/>
<path d="M816 1298.27C816 1305.75 809.936 1311.82 802.455 1311.82C794.974 1311.82 788.909 1305.75 788.909 1298.27C788.909 1290.79 794.974 1284.73 802.455 1284.73C809.936 1284.73 816 1290.79 816 1298.27Z" fill="#6A61F0"/>
<path d="M545.091 1135.73C545.091 1143.21 539.026 1149.27 531.545 1149.27C524.065 1149.27 518 1143.21 518 1135.73C518 1128.25 524.065 1122.18 531.545 1122.18C539.026 1122.18 545.091 1128.25 545.091 1135.73Z" fill="#6A61F0"/>
<path d="M599.273 1081.55C599.273 1089.03 593.208 1095.09 585.727 1095.09C578.246 1095.09 572.182 1089.03 572.182 1081.55C572.182 1074.06 578.246 1068 585.727 1068C593.208 1068 599.273 1074.06 599.273 1081.55Z" fill="#6A61F0"/>
<path fill-rule="evenodd" clip-rule="evenodd" d="M667 1142.27L658.166 1178.7C654.634 1193.26 643.264 1204.63 628.701 1208.17L592.269 1217L628.701 1225.83C643.264 1229.37 654.634 1240.74 658.166 1255.3L667 1291.73L675.834 1255.3C679.366 1240.74 690.736 1229.37 705.299 1225.83L741.731 1217L705.299 1208.17C690.736 1204.63 679.366 1193.26 675.834 1178.7L667 1142.27ZM684.68 1122.54C680.184 1104 653.816 1104 649.32 1122.54L636.95 1173.56C635.344 1180.18 630.176 1185.34 623.557 1186.95L572.542 1199.32C554.001 1203.82 554.001 1230.18 572.542 1234.68L623.557 1247.05C630.176 1248.66 635.344 1253.82 636.95 1260.44L649.32 1311.46C653.816 1330 680.184 1330 684.68 1311.46L697.05 1260.44C698.656 1253.82 703.824 1248.66 710.443 1247.05L761.458 1234.68C779.999 1230.18 779.999 1203.82 761.458 1199.32L710.443 1186.95C703.824 1185.34 698.656 1180.18 697.05 1173.56L684.68 1122.54Z" fill="#6A61F0"/>
<path fill-rule="evenodd" clip-rule="evenodd" d="M626.426 1356.72C624.072 1363.03 617.05 1366.23 610.742 1363.88C569.883 1348.63 537.063 1316.97 520.299 1276.91C517.7 1270.7 520.628 1263.56 526.839 1260.96C533.05 1258.36 540.192 1261.29 542.791 1267.5C556.959 1301.35 584.732 1328.14 619.268 1341.03C625.576 1343.39 628.781 1350.41 626.426 1356.72Z" fill="#6A61F0"/>
<path fill-rule="evenodd" clip-rule="evenodd" d="M806.726 1176.64C800.42 1179 793.395 1175.8 791.036 1169.5C778.044 1134.77 750.942 1106.89 716.703 1092.82C710.475 1090.26 707.5 1083.14 710.058 1076.91C712.616 1070.69 719.738 1067.71 725.966 1070.27C766.46 1086.9 798.494 1119.85 813.872 1160.96C816.231 1167.26 813.032 1174.29 806.726 1176.64Z" fill="#6A61F0"/>
<path d="M669 1301L691 1242.5L755.5 1217.5L691 1194L665 1128L637.5 1194L579.5 1217.5L637.5 1242.5L669 1301Z" fill="#6A61F0" fill-opacity="0.1"/>
</svg>
