<svg width="1282" height="1514" viewBox="0 0 1282 1514" fill="none" xmlns="http://www.w3.org/2000/svg">
<rect x="118" y="312" width="294" height="438" rx="30" fill="#6A61F0"/>
<path d="M225.305 458.117C225.305 461.529 224.458 464.393 222.766 466.711C221.047 469.029 218.69 470.786 215.695 471.984C212.727 473.182 209.315 473.781 205.461 473.781C202.049 473.781 199.068 473.547 196.516 473.078C193.964 472.609 191.776 471.997 189.953 471.242V466.672C191.984 467.479 194.341 468.195 197.023 468.82C199.732 469.419 202.661 469.719 205.812 469.719C210.161 469.719 213.703 468.781 216.438 466.906C219.198 465.005 220.578 462.18 220.578 458.43C220.578 456.164 220.07 454.315 219.055 452.883C218.013 451.424 216.411 450.148 214.25 449.055C212.089 447.961 209.328 446.854 205.969 445.734C202.74 444.589 199.992 443.365 197.727 442.062C195.435 440.76 193.664 439.12 192.414 437.141C191.19 435.135 190.578 432.609 190.578 429.562C190.578 426.411 191.372 423.768 192.961 421.633C194.523 419.497 196.672 417.87 199.406 416.75C202.167 415.63 205.305 415.07 208.82 415.07C211.607 415.07 214.25 415.344 216.75 415.891C219.25 416.411 221.62 417.154 223.859 418.117L222.258 422.102C217.805 420.201 213.273 419.25 208.664 419.25C204.732 419.25 201.516 420.122 199.016 421.867C196.542 423.586 195.305 426.125 195.305 429.484C195.305 431.932 195.839 433.885 196.906 435.344C197.974 436.828 199.523 438.078 201.555 439.094C203.586 440.109 206.06 441.112 208.977 442.102C212.284 443.299 215.188 444.549 217.688 445.852C220.109 447.154 221.984 448.768 223.312 450.695C224.641 452.596 225.305 455.07 225.305 458.117ZM275.07 453.156V415.891H279.641V452.844C279.641 459.354 277.74 464.471 273.938 468.195C270.161 471.919 264.836 473.781 257.961 473.781C251.138 473.781 245.878 471.919 242.18 468.195C238.508 464.471 236.672 459.302 236.672 452.688V415.891H241.32V452.688C241.32 458.234 242.753 462.466 245.617 465.383C248.508 468.273 252.727 469.719 258.273 469.719C263.664 469.719 267.805 468.273 270.695 465.383C273.612 462.466 275.07 458.391 275.07 453.156ZM332.961 415.891H337.258V473H332.297L299.289 423.078H299.016C299.12 425.161 299.198 427.362 299.25 429.68C299.328 431.997 299.367 434.432 299.367 436.984V473H295.031V415.891H299.992L332.961 465.656H333.273C333.169 463.99 333.091 461.867 333.039 459.289C332.987 456.685 332.961 454.289 332.961 452.102V415.891ZM265.695 521.891H275.617V579H263.547V545.953C263.547 545.068 263.56 543.961 263.586 542.633C263.612 541.279 263.651 539.885 263.703 538.453C263.755 537.021 263.807 535.732 263.859 534.586C263.599 534.924 263.026 535.51 262.141 536.344C261.255 537.151 260.435 537.88 259.68 538.531L253.156 543.805L247.297 536.539L265.695 521.891Z" fill="white"/>
<rect x="493" y="856" width="293.671" height="293.671" rx="30" fill="#6A61F0"/>
<path d="M637.283 942.866H649.246V996.089H701.492V1007.81H649.246V1060.79H637.283V1007.81H585.037V996.089H637.283V942.866Z" fill="white"/>
<rect x="495.5" y="314.5" width="289" height="433" rx="27.5" stroke="#6A61F0" stroke-width="5"/>
<path d="M602.961 420.852L582.297 473H578.547L558.078 420.852H557.727C557.831 422.284 557.909 423.951 557.961 425.852C558.039 427.727 558.078 429.732 558.078 431.867V473H553.742V415.891H560.773L580.461 465.969H580.695L600.617 415.891H607.492V473H602.844V431.398C602.844 429.576 602.87 427.74 602.922 425.891C603 424.016 603.091 422.336 603.195 420.852H602.961ZM671.906 444.367C671.906 450.148 670.943 455.266 669.016 459.719C667.089 464.146 664.224 467.596 660.422 470.07C656.62 472.544 651.88 473.781 646.203 473.781C640.448 473.781 635.669 472.544 631.867 470.07C628.039 467.596 625.174 464.133 623.273 459.68C621.398 455.227 620.461 450.096 620.461 444.289C620.461 438.482 621.438 433.391 623.391 429.016C625.344 424.641 628.247 421.216 632.102 418.742C635.956 416.242 640.747 414.992 646.477 414.992C651.997 414.992 656.62 416.177 660.344 418.547C664.094 420.917 666.958 424.289 668.938 428.664C670.917 433.039 671.906 438.273 671.906 444.367ZM625.344 444.367C625.344 449.471 626.099 453.898 627.609 457.648C629.094 461.477 631.372 464.445 634.445 466.555C637.544 468.664 641.464 469.719 646.203 469.719C651.021 469.719 654.966 468.664 658.039 466.555C661.086 464.445 663.339 461.503 664.797 457.727C666.281 453.924 667.023 449.471 667.023 444.367C667.023 436.477 665.305 430.305 661.867 425.852C658.43 421.398 653.299 419.172 646.477 419.172C641.737 419.172 637.792 420.214 634.641 422.297C631.49 424.406 629.146 427.362 627.609 431.164C626.099 434.94 625.344 439.341 625.344 444.367ZM722.844 415.891H727.141V473H722.18L689.172 423.078H688.898C689.003 425.161 689.081 427.362 689.133 429.68C689.211 431.997 689.25 434.432 689.25 436.984V473H684.914V415.891H689.875L722.844 465.656H723.156C723.052 463.99 722.974 461.867 722.922 459.289C722.87 456.685 722.844 454.289 722.844 452.102V415.891Z" fill="#8F8F8F"/>
<path d="M635.812 568.844H660.695V579H620.773V570.602L635.109 556.109C636.542 554.625 637.831 553.258 638.977 552.008C640.148 550.758 641.177 549.638 642.062 548.648C643.833 546.643 645.109 544.833 645.891 543.219C646.698 541.578 647.102 539.82 647.102 537.945C647.102 535.654 646.477 533.948 645.227 532.828C643.977 531.708 642.284 531.148 640.148 531.148C637.961 531.148 635.826 531.656 633.742 532.672C631.659 533.688 629.471 535.133 627.18 537.008L620.617 529.234C621.424 528.557 622.258 527.893 623.117 527.242C623.977 526.565 624.875 525.914 625.812 525.289C627.688 524.039 629.836 523.023 632.258 522.242C634.68 521.461 637.596 521.07 641.008 521.07C644.758 521.07 647.974 521.747 650.656 523.102C653.339 524.456 655.409 526.305 656.867 528.648C658.352 530.966 659.094 533.596 659.094 536.539C659.094 539.638 658.469 542.503 657.219 545.133C655.969 547.737 654.159 550.328 651.789 552.906C649.419 555.484 646.555 558.31 643.195 561.383L635.812 568.297V568.844Z" fill="#0D0C0D"/>
<rect x="870.5" y="314.5" width="289" height="433" rx="27.5" stroke="#B9BCC7" stroke-opacity="0.5" stroke-width="5"/>
<path d="M985.227 420.031H966.828V473H962.18V420.031H943.781V415.891H985.227V420.031ZM1031.48 453.156V415.891H1036.05V452.844C1036.05 459.354 1034.15 464.471 1030.34 468.195C1026.57 471.919 1021.24 473.781 1014.37 473.781C1007.54 473.781 1002.28 471.919 998.586 468.195C994.914 464.471 993.078 459.302 993.078 452.688V415.891H997.727V452.688C997.727 458.234 999.159 462.466 1002.02 465.383C1004.91 468.273 1009.13 469.719 1014.68 469.719C1020.07 469.719 1024.21 468.273 1027.1 465.383C1030.02 462.466 1031.48 458.391 1031.48 453.156ZM1056.09 468.859H1082.8V473H1051.44V415.891H1082.8V420.031H1056.09V441.008H1081.28V445.07H1056.09V468.859ZM1033.47 534.664C1033.47 538.622 1032.27 541.773 1029.88 544.117C1027.51 546.461 1024.59 548.062 1021.12 548.922V549.156C1025.66 549.755 1029.12 551.174 1031.52 553.414C1033.94 555.654 1035.15 558.635 1035.15 562.359C1035.15 565.667 1034.34 568.635 1032.73 571.266C1031.09 573.922 1028.57 576.005 1025.19 577.516C1021.8 579.026 1017.44 579.781 1012.1 579.781C1005.88 579.781 1000.38 578.753 995.617 576.695V566.422C998.065 567.672 1000.62 568.622 1003.27 569.273C1005.96 569.898 1008.47 570.211 1010.81 570.211C1015.14 570.211 1018.16 569.469 1019.88 567.984C1021.62 566.474 1022.49 564.365 1022.49 561.656C1022.49 560.094 1022.1 558.753 1021.32 557.633C1020.51 556.513 1019.11 555.68 1017.1 555.133C1015.1 554.56 1012.31 554.273 1008.74 554.273H1004.41V545.016H1008.82C1012.31 545.016 1014.99 544.677 1016.87 544C1018.72 543.323 1019.97 542.411 1020.62 541.266C1021.29 540.12 1021.63 538.805 1021.63 537.32C1021.63 535.289 1020.99 533.701 1019.72 532.555C1018.47 531.409 1016.39 530.836 1013.47 530.836C1010.73 530.836 1008.35 531.318 1006.32 532.281C1004.32 533.245 1002.64 534.156 1001.28 535.016L995.695 526.695C997.935 525.081 1000.55 523.74 1003.55 522.672C1006.57 521.604 1010.16 521.07 1014.33 521.07C1020.21 521.07 1024.88 522.268 1028.31 524.664C1031.75 527.034 1033.47 530.367 1033.47 534.664Z" fill="#B9BCC7"/>
</svg>
