<svg width="1282" height="1514" viewBox="0 0 1282 1514" fill="none" xmlns="http://www.w3.org/2000/svg">
<circle cx="641.5" cy="756.5" r="146" fill="#FCF4F9" stroke="#6A61F0" stroke-width="5"/>
<circle cx="640.5" cy="1194.5" r="148.5" fill="#FCF4F9"/>
<circle cx="640.5" cy="1194.5" r="146" stroke="#6A61F0" stroke-opacity="0.5" stroke-width="5"/>
<circle cx="640.5" cy="318.5" r="148.5" fill="#6A61F0"/>
<g clip-path="url(#clip0_1_5)">
<path d="M625.25 341.283L601.967 318L594.039 325.873L625.25 357.083L692.25 290.083L684.377 282.211L625.25 341.283Z" fill="white"/>
</g>
<path d="M629.131 789.824H667.021V795H621.807V790.215L642.314 768.877C645.7 765.329 648.564 762.171 650.908 759.404C653.252 756.605 655.01 753.805 656.182 751.006C657.386 748.206 657.988 745.065 657.988 741.582C657.988 737.122 656.686 733.688 654.082 731.279C651.51 728.838 648.011 727.617 643.584 727.617C640.394 727.617 637.399 728.187 634.6 729.326C631.8 730.433 629.033 732.061 626.299 734.209L623.223 730.205C626.152 727.796 629.342 725.924 632.793 724.59C636.276 723.255 639.873 722.588 643.584 722.588C649.736 722.588 654.635 724.297 658.281 727.715C661.96 731.1 663.799 735.658 663.799 741.387C663.799 745.26 663.115 748.792 661.748 751.982C660.381 755.205 658.444 758.346 655.938 761.406C653.464 764.466 650.485 767.738 647.002 771.221L629.131 789.482V789.824Z" fill="#6A61F0"/>
<path d="M664.629 1178.12C664.629 1182.84 663.229 1186.69 660.43 1189.69C657.63 1192.68 654.033 1194.59 649.639 1195.4V1195.79C655.238 1196.48 659.502 1198.3 662.432 1201.26C665.361 1204.22 666.826 1208.2 666.826 1213.18C666.826 1219.33 664.661 1224.34 660.332 1228.21C656.003 1232.06 649.508 1233.98 640.85 1233.98C633.005 1233.98 626.396 1232.66 621.025 1230.02V1224.5C623.76 1225.84 626.885 1226.95 630.4 1227.82C633.949 1228.67 637.432 1229.09 640.85 1229.09C647.62 1229.09 652.633 1227.65 655.889 1224.75C659.176 1221.85 660.82 1217.93 660.82 1212.98C660.82 1207.8 658.883 1204.09 655.01 1201.85C651.169 1199.6 646.009 1198.48 639.531 1198.48H631.914V1193.5H639.629C645.163 1193.5 649.72 1192.21 653.301 1189.64C656.914 1187.07 658.721 1183.33 658.721 1178.41C658.721 1174.21 657.354 1171.04 654.619 1168.89C651.885 1166.71 648.255 1165.62 643.73 1165.62C639.922 1165.62 636.504 1166.19 633.477 1167.33C630.449 1168.43 627.471 1170 624.541 1172.01L621.611 1168.01C624.346 1165.86 627.552 1164.09 631.23 1162.69C634.909 1161.29 639.043 1160.59 643.633 1160.59C650.306 1160.59 655.465 1162.18 659.111 1165.37C662.79 1168.53 664.629 1172.78 664.629 1178.12Z" fill="#6A61F0" fill-opacity="0.5"/>
<line x1="643.5" y1="935" x2="643.5" y2="1016.02" stroke="#6A61F0" stroke-width="5"/>
<line x1="647.5" y1="502" x2="647.5" y2="583.025" stroke="#6A61F0" stroke-opacity="0.3" stroke-width="5"/>
<defs>
<clipPath id="clip0_1_5">
<rect width="134" height="134" fill="white" transform="translate(575 251)"/>
</clipPath>
</defs>
</svg>
